<?xml version="1.0" encoding="UTF-8"?>
<svg width="12px" height="12px" viewBox="0 0 12 12" version="1.1" xmlns="http://www.w3.org/2000/svg" xmlns:xlink="http://www.w3.org/1999/xlink">
    <!-- Generator: Sketch 51 (57462) - http://www.bohemiancoding.com/sketch -->
    <title>warning</title>
    <desc>Created with Sketch.</desc>
    <defs></defs>
    <g id="诊前阶段" stroke="none" stroke-width="1" fill="none" fill-rule="evenodd">
        <g id="warning">
            <path d="M5.99996646,0 C2.68627078,0 0,2.68627078 0,5.99996646 C0,9.3136789 2.68627078,12 5.99996646,12 C9.31372922,12 12,9.31372922 12,5.99996646 C12,2.68627078 9.31366213,0 5.99996646,0 Z" id="Fill-1" fill="#FC694C"></path>
            <path d="M5.49512506,3.18031128 C5.49512506,2.91243557 5.70908013,2.69479075 5.97304807,2.69479075 C6.23686506,2.69479075 6.4508369,2.91243557 6.4508369,3.18031128 L6.4508369,6.8407091 C6.4508369,7.10886993 6.23686506,7.32624641 5.97304807,7.32624641 C5.70908013,7.32624641 5.49512506,7.10886993 5.49512506,6.8407091 L5.49512506,3.18031128 Z" id="Path" fill="#FFFFFF"></path>
            <path d="M5.97304807,9.31746928 C5.59706274,9.31746928 5.29222246,9.00771493 5.29222246,8.6257086 C5.29222246,8.24370227 5.59706274,7.934015 5.97304807,7.934015 C6.3491508,7.934015 6.65378982,8.24370227 6.65378982,8.6257086 C6.65378982,9.00771493 6.34908371,9.31746928 5.97304807,9.31746928 Z" id="Path" fill="#FFFFFF"></path>
        </g>
    </g>
</svg>