<?xml version="1.0" encoding="UTF-8"?>
<svg width="14px" height="14px" viewBox="0 0 14 14" version="1.1" xmlns="http://www.w3.org/2000/svg" xmlns:xlink="http://www.w3.org/1999/xlink">
    <title>man</title>
    <g id="确认" stroke="none" stroke-width="1" fill="none" fill-rule="evenodd">
        <g id="随访详情-出生后-初始样式" transform="translate(-82.000000, -245.000000)" fill="#5CB5F3" fill-rule="nonzero">
            <g id="man" transform="translate(82.000000, 245.000000)">
                <path d="M14.002203,1.13017232 L14.002203,5.22120931 C14.0012806,5.52208206 13.8813994,5.81024603 13.668965,6.02222835 C13.4565306,6.23421068 13.168969,6.35262248 12.8696205,6.35138161 C12.5702719,6.35262248 12.2827104,6.23421068 12.070276,6.02222835 C11.8578416,5.81024603 11.7379603,5.52208206 11.737038,5.22120931 L11.737038,3.8995615 L10.3883936,5.24572751 C11.9791306,7.66541552 11.479747,10.9039148 9.23490191,12.7261139 C6.98510644,14.556116 3.72717949,14.3978668 1.66344278,12.3583409 C-0.393853186,10.3140545 -0.561080563,7.03045387 1.27778393,4.78571934 C3.12520734,2.53645319 6.36119945,2.04586758 8.7865154,3.64737429 L10.1769782,2.26034463 L8.77025269,2.26034463 C8.47090415,2.2615855 8.1833426,2.14317369 7.9709082,1.93119137 C7.75847381,1.71920904 7.63859253,1.43104507 7.6376702,1.13017232 C7.6376702,0.505541965 8.14529948,0 8.77025269,0 L12.8696205,0 C13.4945737,0 14.002203,0.505541951 14.002203,1.13017232 L14.002203,1.13017232 Z M8.06630911,5.96492807 C7.20547276,5.10765353 5.95689815,4.77348025 4.78588557,5.08694296 C3.61677707,5.39782854 2.70149235,6.31198441 2.3848107,7.48505654 C2.07099914,8.65620746 2.40672359,9.90653567 3.26415937,10.7599877 C4.12499572,11.6172622 5.37357032,11.9514355 6.54458289,11.6379728 C7.7141383,11.3274493 8.62993048,10.4132289 8.94681938,9.23985922 C9.26018079,8.06906928 8.9244891,6.81930874 8.06747073,5.9660956 L8.06630911,5.96492807 Z" id="形状"></path>
            </g>
        </g>
    </g>
</svg>