<?xml version="1.0" encoding="UTF-8"?>
<svg width="14px" height="14px" viewBox="0 0 14 14" version="1.1" xmlns="http://www.w3.org/2000/svg" xmlns:xlink="http://www.w3.org/1999/xlink">
    <title>weman</title>
    <g id="确认" stroke="none" stroke-width="1" fill="none" fill-rule="evenodd">
        <g id="随访详情-出生后-初始样式" transform="translate(-422.000000, -245.000000)" fill="#FF8484" fill-rule="nonzero">
            <g id="weman" transform="translate(422.000000, 245.000000)">
                <path d="M12.4029062,1.56975 C11.3988408,0.564792379 10.0365002,0.000138006271 8.61590625,0.000138006271 C7.19531227,0.000138006271 5.8329717,0.564792379 4.82890625,1.56975 C3.03049108,3.36978309 2.74566595,6.18622465 4.14728125,8.309875 L3.31428125,9.142875 L1.80053125,7.62825 C1.37775526,7.23830285 0.722572226,7.25153007 0.315879275,7.65822302 C-0.0908136767,8.06491598 -0.104040896,8.72009901 0.28590625,9.142875 L1.79965625,10.6575 L0.28590625,12.172125 C-0.0995147636,12.5953298 -0.0843994453,13.2466927 0.320237628,13.6515637 C0.7248747,14.0564347 1.3762288,14.0719264 1.79965625,13.68675 L3.31428125,12.172125 L4.82890625,13.68675 C5.2523337,14.0719264 5.9036878,14.0564347 6.30832487,13.6515637 C6.71296195,13.2466927 6.72807726,12.5953298 6.34265625,12.172125 L4.82890625,10.6575 L5.66190625,9.8245 C7.78582958,11.2262487 10.6025857,10.9414287 12.4029062,9.142875 C13.4078107,8.13895898 13.9724434,6.77676326 13.9724434,5.3563125 C13.9724434,3.93586174 13.4078107,2.57366602 12.4029062,1.56975 Z M10.8891562,7.62825 C9.63415819,8.88373131 7.59901256,8.88412306 6.34353125,7.629125 C5.08804994,6.37412694 5.08765819,4.33898131 6.34265625,3.0835 C7.59765431,1.82826032 9.63260407,1.82806444 10.8878438,3.0830625 C12.1430834,4.33806056 12.1432793,6.37301032 10.8882812,7.62825 L10.8891562,7.62825 Z" id="形状"></path>
            </g>
        </g>
    </g>
</svg>