<?xml version="1.0" standalone="no"?><!DOCTYPE svg PUBLIC "-//W3C//DTD SVG 1.1//EN" "http://www.w3.org/Graphics/SVG/1.1/DTD/svg11.dtd"><svg t="1606897942099" class="icon" viewBox="0 0 1024 1024" version="1.1" xmlns="http://www.w3.org/2000/svg" p-id="3254" width="16" height="16" xmlns:xlink="http://www.w3.org/1999/xlink"><defs><style type="text/css"></style></defs><path d="M784.838429 45.511061a73.955473 73.955473 0 0 0-48.696835 17.976868L258.958124 491.178121a56.888826 56.888826 0 0 0 0 86.812348L736.141594 1006.021993c12.743097 11.377765 30.264855 17.976869 48.696835 17.976869a73.955473 73.955473 0 0 0 48.696834-17.976869 57.571492 57.571492 0 0 0-0.45511-87.267458L411.875288 541.240288a8.647102 8.647102 0 0 1 0-12.970653l421.43242-377.628025A58.254157 58.254157 0 0 0 853.332575 107.06477a58.254157 58.254157 0 0 0-20.138644-43.576841A72.021253 72.021253 0 0 0 784.838429 45.511061z" fill="#59B4F4" p-id="3255"></path></svg>