<?xml version="1.0" encoding="UTF-8"?>
<svg width="40px" height="30px" viewBox="0 0 40 30" version="1.1" xmlns="http://www.w3.org/2000/svg" xmlns:xlink="http://www.w3.org/1999/xlink">
    <title>初</title>
    <g id="页面-1" stroke="none" stroke-width="1" fill="none" fill-rule="evenodd">
        <g id="随访管理（审核列表）备份-10" transform="translate(-386.000000, -393.000000)">
            <g id="初" transform="translate(386.000000, 393.000000)">
                <path d="M6,0 L40,0 L40,0 L40,26 C40,27.1045695 39.1045695,28 38,28 C37.5672596,28 37.1461923,27.8596443 36.8,27.6 L4.8,3.6 C3.9163444,2.9372583 3.7372583,1.6836556 4.4,0.8 C4.77770876,0.296388315 5.37048539,1.15639957e-16 6,0 Z" id="矩形备份-98" fill="#7AC3F6"></path>
                <path d="M26.193871,16.0012759 L26.193871,10.4292759 C26.753871,10.9612759 27.299871,11.5912759 27.859871,12.3192759 L28.573871,11.1992759 C28.265871,10.8632759 27.929871,10.5552759 27.579871,10.2472759 C28.027871,9.92527586 28.447871,9.49127586 28.839871,8.95927586 L28.041871,8.16127586 C27.621871,8.77727586 27.201871,9.25327586 26.767871,9.58927586 C26.585871,9.44927586 26.389871,9.32327586 26.193871,9.18327586 L26.193871,9.15527586 C26.879871,8.18927586 27.383871,7.22327586 27.719871,6.24327586 L27.719871,5.16527586 L26.347871,5.16527586 C26.165871,4.53527586 25.899871,3.83527586 25.563871,3.06527586 L24.275871,3.40127586 C24.555871,3.97527586 24.807871,4.56327586 25.031871,5.16527586 L23.295871,5.16527586 L23.295871,6.36927586 L26.417871,6.36927586 C25.829871,7.82527586 24.681871,9.32327586 22.973871,10.8632759 L23.365871,12.2072759 C23.925871,11.7032759 24.443871,11.1992759 24.919871,10.7092759 L24.919871,16.0012759 L26.193871,16.0012759 Z M27.985871,16.0292759 C30.365871,14.0132759 31.569871,10.8072759 31.625871,6.41127586 L31.625871,5.33327586 L34.103871,5.33327586 C34.075871,9.30927586 34.033871,11.6612759 33.949871,12.3612759 C33.837871,13.8312759 33.417871,14.5732759 32.717871,14.5732759 C32.241871,14.5732759 31.653871,14.5452759 30.981871,14.5032759 L31.303871,15.7212759 C32.087871,15.7632759 32.633871,15.7912759 32.941871,15.7912759 C34.299871,15.7912759 35.069871,14.8392759 35.237871,12.9632759 C35.377871,11.8432759 35.461871,8.87527586 35.461871,4.05927586 L28.335871,4.05927586 L28.335871,5.33327586 L30.309871,5.33327586 L30.309871,6.41127586 C30.267871,10.4152759 29.147871,13.3132759 26.963871,15.1332759 L27.985871,16.0292759 Z" fill="#FFFFFF" fill-rule="nonzero"></path>
            </g>
        </g>
    </g>
</svg>