<?xml version="1.0" encoding="UTF-8"?>
<svg width="40px" height="30px" viewBox="0 0 40 30" version="1.1" xmlns="http://www.w3.org/2000/svg" xmlns:xlink="http://www.w3.org/1999/xlink">
    <title>编组 3</title>
    <g id="页面-1" stroke="none" stroke-width="1" fill="none" fill-rule="evenodd">
        <g id="随访管理（审核列表）备份-10" transform="translate(-386.000000, -318.000000)">
            <g id="编组-3" transform="translate(386.000000, 318.000000)">
                <path d="M6,0 L40,0 L40,0 L40,26 C40,27.1045695 39.1045695,28 38,28 C37.5672596,28 37.1461923,27.8596443 36.8,27.6 L4.8,3.6 C3.9163444,2.9372583 3.7372583,1.6836556 4.4,0.8 C4.77770876,0.296388315 5.37048539,1.15639957e-16 6,0 Z" id="矩形备份-97" fill="#BFBBFF"></path>
                <path d="M22.0009384,12.447436 L22.0009384,2.45143601 L20.4889384,2.45143601 L20.4889384,12.447436 L22.0009384,12.447436 Z M28.1189384,12.643436 C29.4349384,12.643436 30.4429384,12.293436 31.1569384,11.621436 C31.8709384,10.935436 32.2349384,9.94143601 32.2349384,8.63943601 L32.2349384,2.45143601 L30.7089384,2.45143601 L30.7089384,8.66743601 C30.7089384,9.56343601 30.4989384,10.221436 30.0929384,10.655436 C29.6729384,11.089436 29.0149384,11.313436 28.1189384,11.313436 C27.2089384,11.313436 26.5509384,11.089436 26.1309384,10.655436 C25.7109384,10.221436 25.5149384,9.56343601 25.5149384,8.66743601 L25.5149384,2.45143601 L23.9889384,2.45143601 L23.9889384,8.63943601 C23.9889384,9.94143601 24.3529384,10.935436 25.0809384,11.635436 C25.7809384,12.307436 26.7889384,12.643436 28.1189384,12.643436 Z M35.7349384,12.447436 L35.7349384,2.45143601 L34.2229384,2.45143601 L34.2229384,12.447436 L35.7349384,12.447436 Z" id="IUI" fill="#FFFFFF" fill-rule="nonzero"></path>
            </g>
        </g>
    </g>
</svg>