<?xml version="1.0" encoding="UTF-8"?>
<svg width="40px" height="30px" viewBox="0 0 40 30" version="1.1" xmlns="http://www.w3.org/2000/svg" xmlns:xlink="http://www.w3.org/1999/xlink">
    <title>编组 4</title>
    <g id="页面-1" stroke="none" stroke-width="1" fill="none" fill-rule="evenodd">
        <g id="随访管理（审核列表）备份-10" transform="translate(-386.000000, -168.000000)">
            <g id="编组-4" transform="translate(386.000000, 168.000000)">
                <path d="M6,0 L40,0 L40,0 L40,26 C40,27.1045695 39.1045695,28 38,28 C37.5672596,28 37.1461923,27.8596443 36.8,27.6 L4.8,3.6 C3.9163444,2.9372583 3.7372583,1.6836556 4.4,0.8 C4.77770876,0.296388315 5.37048539,1.15639957e-16 6,0 Z" id="矩形备份-94" fill="#FFCE72"></path>
                <path d="M20.52,13.6878928 L20.52,3.6918928 L19.008,3.6918928 L19.008,13.6878928 L20.52,13.6878928 Z M27.03,13.6878928 L30.614,3.6918928 L28.962,3.6918928 L26.134,11.9798928 L26.092,11.9798928 L23.25,3.6918928 L21.598,3.6918928 L25.182,13.6878928 L27.03,13.6878928 Z M33.19,13.6878928 L33.19,9.2078928 L38.16,9.2078928 L38.16,7.9058928 L33.19,7.9058928 L33.19,4.9938928 L38.454,4.9938928 L38.454,3.6918928 L31.664,3.6918928 L31.664,13.6878928 L33.19,13.6878928 Z" id="IVF" fill="#FFFFFF" fill-rule="nonzero"></path>
            </g>
        </g>
    </g>
</svg>