<?xml version="1.0" encoding="UTF-8"?>
<svg width="30px" height="31px" viewBox="0 0 30 31" version="1.1" xmlns="http://www.w3.org/2000/svg" xmlns:xlink="http://www.w3.org/1999/xlink">
    <title>男患者默认头像</title>
    <defs>
        <path d="M0.810637156,10.4934222 C1.40196601,12.6422437 3.97453174,14.417911 4.2939634,14.6919351 C4.41249466,14.7937425 5.62251743,15.1256059 6.13520572,15.1219512 C7.01239296,15.1153597 8.30134229,14.5083718 8.49214398,14.3805585 C8.79655475,14.1780424 10.8936498,11.7979486 11.1349347,11.0597505 C11.3745085,10.3194017 11.8880709,8.2191482 11.8841912,6.32481596 C11.8800852,4.43406808 11.8422477,0.70633765 10.5283949,0.204527785 C9.21473214,-0.295489902 6.8418112,0.283383621 4.2939634,0.245747881 C1.74801698,0.206319963 0.599584092,0.191982539 0.491205491,0.837166651 C0.382826891,1.48593512 0.0253676471,2.49313921 0.0253676471,2.49313921 C0.0253676471,2.49313921 0.221209679,8.35356156 0.810637156,10.4934222 Z" id="path-1"></path>
    </defs>
    <g id="页面-1" stroke="none" stroke-width="1" fill="none" fill-rule="evenodd">
        <g id="随访管理（审核列表）备份-10" transform="translate(-734.000000, -250.000000)">
            <g id="男患者默认头像" transform="translate(734.000000, 250.000000)">
                <path d="M0,15.1219512 C0,6.77085366 6.71625,0 15,0 C23.28375,0 30,6.77085366 30,15.1219512 C30,23.4730488 23.28375,30.2439024 15,30.2439024 C6.71625,30.2439024 0,23.4730488 0,15.1219512 Z" id="路径" fill="#8EC8E0" fill-rule="nonzero"></path>
                <path d="M12.6542852,29.9942951 C13.3951539,30.1347829 14.6047911,30.2439024 15.3815911,30.2439024 C16.142992,30.2439024 16.8827068,30.1407059 17.6098874,30.0037303 C17.6593357,28.2907547 17.7188352,27.084878 17.7648615,26.6614634 C17.9359628,25.0963902 18.9386165,23.1315122 19.5,22.1051707 C18.9439207,20.4312195 19.1116,18.1463415 19.1116,18.1463415 C13.7988297,18.1463415 11.1424445,18.1463415 11.1424445,18.1463415 C11.1424445,18.1463415 11.4921638,18.9043701 11.0199241,20.5511994 C10.9973993,20.634349 10.8570064,21.3895131 10.5421596,22.1051707 C10.2273128,22.8208283 11.7738834,25.6210287 11.9366725,27.10789 C12.0994616,28.5947514 12.6029548,28.286978 12.6542852,29.9942951 Z" id="路径" fill="#F4B58A" fill-rule="nonzero"></path>
                <path d="M19.3330998,17.3902439 C19.3330998,17.3902439 16.6111574,17.3902439 11.1672727,17.3902439 C11.1672727,17.3902439 11.2188662,19.1015058 11.0563106,20.4239963 C11.7947282,22.0538894 14.9095111,24.3150925 15.9816867,24.7145762 C17.3426578,25.2199229 19.3330998,24.7587191 19.3330998,24.7587191 C20.2585433,24.5888005 20.4139615,23.9112959 19.7993544,22.7262053 C18.8774438,20.9485694 19.3330998,17.3902439 19.3330998,17.3902439 Z" id="路径" fill="#D78562" fill-rule="nonzero"></path>
                <path d="M9.60532215,13.3477759 C9.60532215,13.3477759 8.88065493,11.1811859 7.91943831,11.4865685 C6.96009907,11.790144 7.65097352,16.0745351 9.94512724,16.5859154 C12.2430357,17.0991027 9.60532215,13.3477759 9.60532215,13.3477759 L9.60532215,13.3477759 Z M20.238781,13.0514283 C20.238781,13.0514283 21.0648265,10.9209782 22.1874975,11.4160955 C23.3139232,11.9112129 21.1004967,16.2425859 20.2049882,16.5425475 C19.3113572,16.8408828 20.238781,13.0514283 20.238781,13.0514283 L20.238781,13.0514283 Z" id="形状" fill="#D78562" fill-rule="nonzero"></path>
                <g id="分组-4" transform="translate(9.000000, 6.048780)">
                    <mask id="mask-2" fill="white">
                        <use xlink:href="#path-1"></use>
                    </mask>
                    <use id="路径" fill="#F4B58A" fill-rule="nonzero" xlink:href="#path-1"></use>
                    <rect id="矩形" fill="#F5AE7E" mask="url(#mask-2)" x="6.09595588" y="-5.08775929" width="9.6" height="21.9056303"></rect>
                </g>
                <path d="M8.70493504,9.72780955 C8.59480455,7.17180237 9.34452251,6.37691474 9.34452251,6.37691474 C9.34452251,6.37691474 9.82909667,5.68207784 10.4917151,5.39383505 C10.4917151,5.39383505 11.0992683,3.51357586 12.3510849,3.26541982 C13.601066,3.01535489 15.1447284,2.9103658 16.6920618,3.19479079 C18.2412307,3.48112468 20.102436,4.08624363 21.7213542,3.68728508 C21.7213542,3.68728508 23.0686172,4.63791359 22.2187769,6.40936591 C21.3671011,8.18654491 21.348746,8.0090179 21.348746,8.0090179 C21.348746,8.0090179 21.8235308,11.5098337 20.7497585,14.1861011 C20.7497585,14.1861011 20.6221508,8.0090179 19.4087974,7.37144778 C18.195444,6.73387765 17.4007515,8.06437579 15.1153602,8.07392025 C12.8319881,8.08346471 11.8941681,7.6003526 11.8941681,7.6003526 C11.8941681,7.6003526 11.1240956,7.41148904 10.8259445,7.7095446 C10.0405096,8.49472777 9.44592884,10.4527629 9.44592884,12.3723239 C9.44592884,14.2918849 9.44592884,14.4488081 9.44592884,14.4488081 C9.44592884,14.4488081 8.81506553,12.2914523 8.70493504,9.72780955 Z" id="路径" fill="#000000" fill-rule="nonzero"></path>
                <path d="M15.019625,27.9856348 C16.6425775,27.9967844 17.7960997,27.6184932 18.2178286,27.2381946 C18.2131243,28.6596424 18.1715947,29.5756403 18.0932397,29.9861882 C16.9047798,30.1878572 15.7763217,30.2715843 14.6925506,30.2439024 C13.4702468,30.2126822 12.3044533,30.0441508 11.1672727,29.826444 L11.9986899,27.2557008 C12.9306784,27.7348904 13.9376567,27.9782017 15.019625,27.9856348 Z" id="路径-3" fill="#EBF3F6"></path>
                <path d="M25.6633984,25.7349986 C23.5541109,24.9520986 21.1198619,23.6874802 20.3011627,23.057546 C19.9200507,22.7620191 19.6647548,22.4941183 19.4714508,22.0014517 C18.8498459,22.9615948 17.9019801,24.7057848 17.5321781,26.1371228 C17.0032714,28.1842841 17.3327991,28.4886807 17.2780297,30.0911704 C21.740509,29.1503722 23.4955512,27.7593306 25.6633984,25.7349986 Z" id="形状" fill="#1D334B" fill-rule="nonzero"></path>
                <path d="M12.75,25.7073171 C10.6875005,24.9024144 8.08319431,23.5112456 7.2826554,22.8636076 C6.90999713,22.5597752 6.54021197,22.2843453 6.35119584,21.7778327 C5.74337926,22.7649598 4.93669103,24.5581687 4.57509198,26.0297332 C4.05791742,28.1344282 4.3801356,28.4473796 4.32658103,30.0949059 C8.69007439,29.1276674 10.6302397,27.7885412 12.75,25.7073171 Z" id="形状备份" fill="#1D334B" fill-rule="nonzero" transform="translate(8.512973, 25.936369) scale(-1, 1) translate(-8.512973, -25.936369) "></path>
                <path d="M17.2262468,30.0911704 C17.8045568,29.9995536 18.9461787,29.7150177 19.5,29.5621433 C21.5589343,28.1357954 22.0321802,25.6149724 22.5106517,24.3503012 C21.7159292,23.9286514 21.4618676,23.7887336 21,23.5250265 C20.5548438,23.2708609 19.7182555,22.5238256 19.4862678,22.0359967 C19.4775588,22.0176833 19.4697019,21.9997353 19.4627498,21.9821923 C18.8448811,22.9271029 17.4383746,25.0188349 17.25,26.459554 C17.1974435,26.8563806 17.2262468,28.7203805 17.2262468,30.0911704 Z" id="形状" fill="#4B7499" fill-rule="nonzero"></path>
                <path d="M7.50781325,30.0949059 C8.08150303,30.000938 9.21400425,29.7091002 9.76340097,29.5523028 C11.8058861,28.0893515 12.2753511,25.5038383 12.75,24.2067127 C11.9616267,23.7742424 12.0457737,23.8511258 11.2246324,23.3575177 C10.403491,22.8639095 9.58214562,21.7958259 9.57524902,21.7778327 C8.96231662,22.7469919 7.71824629,24.8924026 7.53137666,26.3700939 C7.47924003,26.7771039 7.50781325,28.6889384 7.50781325,30.0949059 Z" id="形状备份-2" fill="#4B7499" fill-rule="nonzero" transform="translate(10.125000, 25.936369) scale(-1, 1) translate(-10.125000, -25.936369) "></path>
            </g>
        </g>
    </g>
</svg>