<?xml version="1.0" encoding="UTF-8"?>
<svg width="40px" height="30px" viewBox="0 0 40 30" version="1.1" xmlns="http://www.w3.org/2000/svg" xmlns:xlink="http://www.w3.org/1999/xlink">
    <title>复</title>
    <g id="页面-1" stroke="none" stroke-width="1" fill="none" fill-rule="evenodd">
        <g id="随访管理（审核列表）备份-10" transform="translate(-386.000000, -243.000000)">
            <g id="复" transform="translate(386.000000, 243.000000)">
                <path d="M6,0 L40,0 L40,0 L40,26 C40,27.1045695 39.1045695,28 38,28 C37.5672596,28 37.1461923,27.8596443 36.8,27.6 L4.8,3.6 C3.9163444,2.9372583 3.7372583,1.6836556 4.4,0.8 C4.77770876,0.296388315 5.37048539,1.15639957e-16 6,0 Z" id="矩形备份-96" fill="#FFAAAA"></path>
                <path d="M24.079871,15.484 C26.403871,15.344 28.391871,14.98 30.043871,14.392 C31.625871,14.966 33.417871,15.302 35.419871,15.4 L35.727871,14.182 C34.243871,14.126 32.885871,13.958 31.653871,13.664 C32.647871,13.118 33.459871,12.446 34.089871,11.662 L34.089871,10.724 L27.943871,10.724 C28.139871,10.486 28.321871,10.234 28.503871,9.968 L34.033871,9.968 L34.033871,5.348 L25.969871,5.348 C26.137871,5.11 26.305871,4.858 26.473871,4.606 L35.069871,4.606 L35.069871,3.472 L27.061871,3.472 C27.173871,3.192 27.271871,2.912 27.369871,2.618 L26.067871,2.38 C25.563871,3.892 24.611871,5.18 23.211871,6.23 L24.009871,7.28 C24.499871,6.902 24.961871,6.496 25.381871,6.048 L25.381871,9.968 L27.019871,9.968 C26.291871,10.85 25.199871,11.578 23.715871,12.166 L24.401871,13.3 C25.059871,12.992 25.675871,12.642 26.235871,12.264 C26.907871,12.81 27.649871,13.286 28.447871,13.706 C27.075871,14.056 25.437871,14.266 23.547871,14.336 L24.079871,15.484 Z M32.745871,7.154 L26.683871,7.154 L26.683871,6.37 L32.745871,6.37 L32.745871,7.154 Z M32.745871,8.932 L26.683871,8.932 L26.683871,8.134 L32.745871,8.134 L32.745871,8.932 Z M30.057871,13.188 C29.049871,12.824 28.139871,12.348 27.327871,11.788 L32.423871,11.788 C31.793871,12.348 31.009871,12.81 30.057871,13.188 Z" fill="#FFFFFF" fill-rule="nonzero"></path>
            </g>
        </g>
    </g>
</svg>