<?xml version="1.0" encoding="UTF-8"?>
<svg width="18px" height="16px" viewBox="0 0 18 16" version="1.1" xmlns="http://www.w3.org/2000/svg" xmlns:xlink="http://www.w3.org/1999/xlink">
    <title>注意</title>
    <g id="页面-1" stroke="none" stroke-width="1" fill="none" fill-rule="evenodd">
        <g id="随访管理（审核列表）备份-10" transform="translate(-472.000000, -281.000000)" fill="#FF0000" fill-rule="nonzero">
            <g id="注意" transform="translate(472.000000, 281.000000)">
                <path d="M17.8631908,13.8515502 L10.2431911,0.646324436 C9.95335942,0.240091442 9.49198979,0 9.00118739,0 C8.51038499,0 8.04901535,0.240091442 7.75918364,0.646324436 L0.144622771,13.8361753 C0.0492969166,14.037531 -1.63424829e-13,14.2584755 -1.63424829e-13,14.4823117 C0.0112042411,15.3305313 0.689749567,16.0093826 1.5168065,15.9999019 L16.4831917,15.9999019 C17.3102486,16.0093826 17.9887939,15.3305313 18,14.4823117 C18.0002129,14.2642939 17.953499,14.0489155 17.8631908,13.8515502 L17.8631908,13.8515502 Z M9.91259952,3.79764748 L9.63718777,10.7513206 L8.37118946,10.7513206 L8.09579293,3.79764748 L9.91199014,3.79764748 L9.91259952,3.79764748 Z M8.97658345,14.320469 C8.5079631,14.3410345 8.07411144,14.0676943 7.88015542,13.629685 C7.68619941,13.1916756 7.77099858,12.6767532 8.09445952,12.3283753 C8.41792046,11.9799974 8.91523703,11.8679623 9.35127576,12.0452408 C9.7873145,12.2225192 10.074714,12.6535931 10.0775906,13.1346487 C10.0859692,13.4419439 9.97443509,13.7399631 9.76773344,13.9625875 C9.56103179,14.1852118 9.27625482,14.3140324 8.97658345,14.320469 L8.97658345,14.320469 Z" id="形状"></path>
            </g>
        </g>
    </g>
</svg>