<?xml version="1.0" encoding="UTF-8"?>
<svg width="30px" height="30px" viewBox="0 0 30 30" version="1.1" xmlns="http://www.w3.org/2000/svg" xmlns:xlink="http://www.w3.org/1999/xlink">
    <title>女患者默认头像</title>
    <g id="页面-1" stroke="none" stroke-width="1" fill="none" fill-rule="evenodd">
        <g id="随访管理（审核列表）备份-10" transform="translate(-470.000000, -173.000000)" fill-rule="nonzero">
            <g id="女患者默认头像" transform="translate(470.000000, 173.000000)">
                <path d="M0,15.0465693 C0,19.6226073 2.038125,23.7227974 5.251875,26.4819621 C8.109375,29.0116665 11.908125,30.0348332 15.1875,29.9990976 C18.0075,29.9690045 21.9375,28.964646 24.9958125,26.2656676 C28.0666875,23.5102646 30,19.5041155 30,15.0465693 C30,6.73710143 23.28375,0 15,0 C6.71625,0 0,6.73710143 0,15.0465693 Z" id="路径" fill="#F1999A"></path>
                <path d="M5.04770518,26.2708941 C7.53836983,28.6484026 11.2778755,30 15,30 C18.7221245,30 21.8817965,28.7228752 24.7655255,26.5080836 C24.6541074,26.1972984 24.5198576,25.4741903 24.3938273,25.3071432 C23.3693284,23.9532851 20.8706398,24.0465207 20.5398558,23.9202642 C20.2090717,23.7940077 18.7040137,23.5104162 18.1308496,22.6617783 C17.558964,21.8108095 17.284985,18.1260623 17.284985,18.1260623 L15,18 L12.715015,18.1260623 C12.715015,18.1260623 12.441036,21.8108095 11.8693331,22.6617783 C11.2958037,23.5104162 9.7907456,23.7940077 9.46014425,23.9202642 C9.1295429,24.0463264 6.63085425,23.9532851 5.60617272,25.3071432 C5.48014238,25.4741903 5.15912331,25.9601089 5.04770518,26.2708941 Z" id="路径" fill="#E26561"></path>
                <path d="M14.9362502,18.75 L12.3594809,18.8654322 C12.3594809,18.8654322 12.1181581,22.2676482 11.4058085,23.0186776 C10.8050756,23.6520296 9.63234865,23.8523749 9,24 C9.12358606,24.7881046 9.6673647,25.9514369 11.9145711,26.5366015 C15.8981617,27.575313 19.918622,26.7837114 21,24 C20.4255308,23.8630466 19.1228025,23.6089162 18.4666918,23.0184997 C17.6749217,22.3060069 17.5130194,18.8654322 17.5130194,18.8654322 L14.9362502,18.75 Z" id="路径" fill="#FEDBC0"></path>
                <path d="M17.4138287,18.8634587 L14.8317853,18.75 L12.3594809,18.8634587 C12.3594809,18.8634587 12.3037296,19.7956211 12.136547,20.750143 C13.0674035,21.4387624 14.5139319,22.3266601 16.3446852,22.4909917 C16.8627451,22.5383681 17.4342621,22.3948402 18,22.1553356 C17.6055728,20.9053664 17.5130194,18.8634587 17.5130194,18.8634587 L17.4138287,18.8634587 Z" id="路径" fill="#F4C1A2"></path>
                <path d="M19.6054714,17.0362347 C20.6645155,15.1138791 20.8626033,14.1065795 20.9962324,12.8777109 C21.1283538,11.6490269 17.7527567,7.39659917 16.0317865,6.82837889 C14.3111933,6.26218798 13.2199198,5.63308696 11.6649966,6.26218798 C10.1100733,6.89313387 9.28266568,8.40408323 9.0828816,9.09775473 C8.88498228,9.79142623 9.05084076,14.4534153 9.480565,16.0914762 C9.91028925,17.7299062 12.9154605,19.9031642 15,20.25 C17.3654157,19.3890602 18.9005728,18.3178051 19.6054714,17.0362347 Z" id="路径" fill="#FEDFC9"></path>
                <path d="M14.9994961,5.99981486 C15.3978345,6.14617804 15.8211067,6.32034984 16.2947282,6.48907285 C17.9246164,7.07165804 21.1215607,11.4315895 20.9964318,12.6913354 C20.869875,13.9512704 20.6593855,15.0080173 19.6563911,16.9789711 C18.9887992,18.2929403 17.4366688,19.3832833 15,20.25 L15,20.25 Z" id="合并形状" fill="#FCD6BA"></path>
                <path d="M17.25,16.5 C17.25,16.5 16.185,16.8133025 15.82875,16.8338469 C15.4741875,16.8543914 15,17.0007704 15,17.0007704 C15,17.0007704 14.525625,16.8543914 14.17125,16.8338469 C13.815,16.8133025 12.75,16.5 12.75,16.5 C12.75,16.5 13.6380721,17.8366735 14.9993221,17.8366735 C16.36125,17.8366735 17.25,16.5 17.25,16.5 Z" id="路径" fill="#AB4F42"></path>
                <path d="M23.2324687,10.4471911 C23.2231851,10.518502 23.1596561,10.6254684 22.8445597,10.5823065 C22.6991166,10.5616639 22.5715126,10.499736 22.4606554,10.4077825 C22.8609425,9.85606132 23.3305837,8.85958532 22.8101558,7.59850836 C22.1439207,5.9827535 20.547505,5.1251461 19.7429261,4.77985121 C19.3806835,4.40453069 19.0002378,4.07987843 18.6268913,3.85280952 C17.0452202,2.89011237 14.3602565,2.00060272 13.4500993,2.31399536 C12.5381218,2.6255114 11.8190976,3.85280952 11.7244413,4.23563645 C11.7244413,4.23563645 10.2863929,3.97291208 9.03947759,5.96774068 C7.79256225,7.96256927 6.63848294,9.73971195 6.75862369,12.1192441 C6.87694412,14.4987762 7.85991388,15.36389 7.90906237,15.7731771 C7.95639054,16.1822764 7.72156999,17.4790088 8.46425825,18.2726241 C9.20694651,19.0662393 11.0764094,18.9219286 11.1492219,19.426547 C11.2202142,19.9296642 10.5976667,19.9296642 10.3810493,19.8114382 C10.3810493,19.8114382 10.7414715,20.4363469 11.531488,20.1942652 C12.3233247,19.95406 12.220676,19.0437522 12.220676,19.0437522 C12.220676,19.0437522 10.5102916,18.2724364 9.80582994,16.1575053 C9.44176706,15.0634459 9.42356392,11.927643 9.42356392,11.927643 C9.56736876,10.6290339 10.310057,9.57250666 10.8379482,9.13901145 C11.364019,8.70739285 11.9629025,7.91358994 11.9155743,7.3130771 C11.9155743,7.3130771 15.6071718,7.1685787 16.517329,8.85001465 C17.4293065,10.5333272 19.5372305,13.4645805 20.3527314,13.6578706 C20.3527314,13.6578706 20.4000596,15.0521863 19.777512,15.3880982 C19.777512,15.3880982 19.4374463,17.8227763 17.709968,18.9768869 C17.709968,18.9768869 18.914683,20.4361593 20.9279507,19.6179605 C22.9414004,18.8016384 22.8445597,17.4542377 22.6536087,17.1185135 C22.6536087,17.1185135 22.3659991,18.0322313 22.0783894,17.8879206 C21.7907797,17.7436098 21.1189017,17.1185135 21.5031701,16.1575053 C21.8870744,15.1968724 23.1321694,13.8494717 23.228646,13.2733547 C23.3253047,12.6972377 23.1088694,11.807728 22.2693404,11.9278306 C22.2693404,11.9278306 23.2597734,11.3742328 23.2324687,10.4471911 Z M22.0947722,9.86732093 C21.9382252,9.47698759 21.8708736,8.97218148 21.8870744,8.46737537 C21.9034572,7.92691382 21.352084,6.80845865 20.5800886,5.7706974 C21.2317612,6.1272519 22.0454417,6.72025833 22.4459109,7.59850836 C22.9648825,8.73572955 22.4262515,9.52390265 22.0947722,9.86732093 Z" id="形状" fill="#631A19"></path>
                <path d="M9,16.5 C8.80944605,15.7482162 8.71249755,14.4289451 8.68241008,13.5056377 C8.64396498,13.3669592 8.63895041,12.9290268 8.63895041,12.9290268 C8.63895041,12.9290268 8.27288624,12.5586091 7.82658882,12.8834089 C7.38029141,13.2100334 7.39032056,14.6004685 7.86336239,15.5474972 C8.25617098,16.3303012 8.68241008,16.4854023 9,16.5 Z" id="路径" fill="#EEB795"></path>
            </g>
        </g>
    </g>
</svg>